<svg id="my-svg" width="100%" xmlns="http://www.w3.org/2000/svg" xmlns:xlink="http://www.w3.org/1999/xlink" class="flowchart" style="max-width: 1456.91px; background-color: white;" viewBox="0 0 1456.91 287.43" role="graphics-document document" aria-roledescription="flowchart-v2"><style>#my-svg{font-family:"trebuchet ms",verdana,arial,sans-serif;font-size:16px;fill:#333;}@keyframes edge-animation-frame{from{stroke-dashoffset:0;}}@keyframes dash{to{stroke-dashoffset:0;}}#my-svg .edge-animation-slow{stroke-dasharray:9,5!important;stroke-dashoffset:900;animation:dash 50s linear infinite;stroke-linecap:round;}#my-svg .edge-animation-fast{stroke-dasharray:9,5!important;stroke-dashoffset:900;animation:dash 20s linear infinite;stroke-linecap:round;}#my-svg .error-icon{fill:#552222;}#my-svg .error-text{fill:#552222;stroke:#552222;}#my-svg .edge-thickness-normal{stroke-width:1px;}#my-svg .edge-thickness-thick{stroke-width:3.5px;}#my-svg .edge-pattern-solid{stroke-dasharray:0;}#my-svg .edge-thickness-invisible{stroke-width:0;fill:none;}#my-svg .edge-pattern-dashed{stroke-dasharray:3;}#my-svg .edge-pattern-dotted{stroke-dasharray:2;}#my-svg .marker{fill:#333333;stroke:#333333;}#my-svg .marker.cross{stroke:#333333;}#my-svg svg{font-family:"trebuchet ms",verdana,arial,sans-serif;font-size:16px;}#my-svg p{margin:0;}#my-svg .label{font-family:"trebuchet ms",verdana,arial,sans-serif;color:#333;}#my-svg .cluster-label text{fill:#333;}#my-svg .cluster-label span{color:#333;}#my-svg .cluster-label span p{background-color:transparent;}#my-svg .label text,#my-svg span{fill:#333;color:#333;}#my-svg .node rect,#my-svg .node circle,#my-svg .node ellipse,#my-svg .node polygon,#my-svg .node path{fill:#ECECFF;stroke:#9370DB;stroke-width:1px;}#my-svg .rough-node .label text,#my-svg .node .label text,#my-svg .image-shape .label,#my-svg .icon-shape .label{text-anchor:middle;}#my-svg .node .katex path{fill:#000;stroke:#000;stroke-width:1px;}#my-svg .rough-node .label,#my-svg .node .label,#my-svg .image-shape .label,#my-svg .icon-shape .label{text-align:center;}#my-svg .node.clickable{cursor:pointer;}#my-svg .root .anchor path{fill:#333333!important;stroke-width:0;stroke:#333333;}#my-svg .arrowheadPath{fill:#333333;}#my-svg .edgePaths .path{stroke:#333333;stroke-width:1px;}#my-svg .flowchart-link{stroke:#333333;fill:none;}#my-svg .edgeLabel{background-color:rgba(232,232,232, 0.8);text-align:center;}#my-svg .edgeLabel p{background-color:rgba(232,232,232, 0.8);}#my-svg .edgeLabel rect{opacity:0.5;background-color:rgba(232,232,232, 0.8);fill:rgba(232,232,232, 0.8);}#my-svg .labelBkg{background-color:rgba(232, 232, 232, 0.5);}#my-svg .cluster rect{fill:#ffffde;stroke:#aaaa33;stroke-width:1px;}#my-svg .cluster text{fill:#333;}#my-svg .cluster span{color:#333;}#my-svg .node .collapsed-indicator{fill:#aaaa33;stroke:none;opacity:0.6;}#my-svg .node .collapsed-separator{stroke:#aaaa33;stroke-width:0.75px;}#my-svg div.mermaidTooltip{position:absolute;text-align:center;max-width:200px;padding:2px;font-family:"trebuchet ms",verdana,arial,sans-serif;font-size:12px;background:hsl(80, 100%, 96.2745098039%);border:1px solid #aaaa33;border-radius:2px;pointer-events:none;z-index:100;}#my-svg .flowchartTitleText{text-anchor:middle;font-size:18px;fill:#333;}#my-svg rect.text{fill:none;stroke-width:0;}#my-svg .icon-shape,#my-svg .image-shape{background-color:rgba(232,232,232, 0.8);text-align:center;}#my-svg .icon-shape p,#my-svg .image-shape p{background-color:rgba(232,232,232, 0.8);padding:2px;}#my-svg .icon-shape .label rect,#my-svg .image-shape .label rect{opacity:0.5;background-color:rgba(232,232,232, 0.8);fill:rgba(232,232,232, 0.8);}#my-svg .label-icon{display:inline-block;height:1em;overflow:visible;vertical-align:-0.125em;}#my-svg .node .label-icon path{fill:currentColor;stroke:revert;stroke-width:revert;}#my-svg .node .neo-node{stroke:#9370DB;}#my-svg [data-look="neo"].node rect,#my-svg [data-look="neo"].cluster rect,#my-svg [data-look="neo"].node polygon{stroke:#9370DB;filter:drop-shadow(1px 2px 2px rgba(185, 185, 185, 1));}#my-svg [data-look="neo"].swimlane.cluster rect{filter:none;}#my-svg [data-look="neo"].node path{stroke:#9370DB;stroke-width:1px;}#my-svg [data-look="neo"].node .outer-path{filter:drop-shadow(1px 2px 2px rgba(185, 185, 185, 1));}#my-svg [data-look="neo"].node .neo-line path{stroke:#9370DB;filter:none;}#my-svg [data-look="neo"].node circle{stroke:#9370DB;filter:drop-shadow(1px 2px 2px rgba(185, 185, 185, 1));}#my-svg [data-look="neo"].node circle .state-start{fill:#000000;}#my-svg [data-look="neo"].icon-shape .icon{fill:#9370DB;filter:drop-shadow(1px 2px 2px rgba(185, 185, 185, 1));}#my-svg [data-look="neo"].icon-shape .icon-neo path{stroke:#9370DB;filter:drop-shadow(1px 2px 2px rgba(185, 185, 185, 1));}#my-svg :root{--mermaid-font-family:"trebuchet ms",verdana,arial,sans-serif;}</style><g><marker id="my-svg_flowchart-v2-pointEnd" class="marker flowchart-v2" viewBox="0 0 10 10" refX="5" refY="5" markerUnits="userSpaceOnUse" markerWidth="8" markerHeight="8" orient="auto"><path d="M 0 0 L 10 5 L 0 10 z" class="arrowMarkerPath" style="stroke-width: 1; stroke-dasharray: 1, 0;"/></marker><marker id="my-svg_flowchart-v2-pointStart" class="marker flowchart-v2" viewBox="0 0 10 10" refX="4.5" refY="5" markerUnits="userSpaceOnUse" markerWidth="8" markerHeight="8" orient="auto"><path d="M 0 5 L 10 10 L 10 0 z" class="arrowMarkerPath" style="stroke-width: 1; stroke-dasharray: 1, 0;"/></marker><marker id="my-svg_flowchart-v2-pointEnd-margin" class="marker flowchart-v2" viewBox="0 0 11.5 14" refX="11.5" refY="7" markerUnits="userSpaceOnUse" markerWidth="10.5" markerHeight="14" orient="auto"><path d="M 0 0 L 11.5 7 L 0 14 z" class="arrowMarkerPath" style="stroke-width: 0; stroke-dasharray: 1, 0;"/></marker><marker id="my-svg_flowchart-v2-pointStart-margin" class="marker flowchart-v2" viewBox="0 0 11.5 14" refX="1" refY="7" markerUnits="userSpaceOnUse" markerWidth="11.5" markerHeight="14" orient="auto"><polygon points="0,7 11.5,14 11.5,0" class="arrowMarkerPath" style="stroke-width: 0; stroke-dasharray: 1, 0;"/></marker><marker id="my-svg_flowchart-v2-circleEnd" class="marker flowchart-v2" viewBox="0 0 10 10" refX="11" refY="5" markerUnits="userSpaceOnUse" markerWidth="11" markerHeight="11" orient="auto"><circle cx="5" cy="5" r="5" class="arrowMarkerPath" style="stroke-width: 1; stroke-dasharray: 1, 0;"/></marker><marker id="my-svg_flowchart-v2-circleStart" class="marker flowchart-v2" viewBox="0 0 10 10" refX="-1" refY="5" markerUnits="userSpaceOnUse" markerWidth="11" markerHeight="11" orient="auto"><circle cx="5" cy="5" r="5" class="arrowMarkerPath" style="stroke-width: 1; stroke-dasharray: 1, 0;"/></marker><marker id="my-svg_flowchart-v2-circleEnd-margin" class="marker flowchart-v2" viewBox="0 0 10 10" refY="5" refX="12.25" markerUnits="userSpaceOnUse" markerWidth="14" markerHeight="14" orient="auto"><circle cx="5" cy="5" r="5" class="arrowMarkerPath" style="stroke-width: 0; stroke-dasharray: 1, 0;"/></marker><marker id="my-svg_flowchart-v2-circleStart-margin" class="marker flowchart-v2" viewBox="0 0 10 10" refX="-2" refY="5" markerUnits="userSpaceOnUse" markerWidth="14" markerHeight="14" orient="auto"><circle cx="5" cy="5" r="5" class="arrowMarkerPath" style="stroke-width: 0; stroke-dasharray: 1, 0;"/></marker><marker id="my-svg_flowchart-v2-crossEnd" class="marker cross flowchart-v2" viewBox="0 0 11 11" refX="12" refY="5.2" markerUnits="userSpaceOnUse" markerWidth="11" markerHeight="11" orient="auto"><path d="M 1,1 l 9,9 M 10,1 l -9,9" class="arrowMarkerPath" style="stroke-width: 2; stroke-dasharray: 1, 0;"/></marker><marker id="my-svg_flowchart-v2-crossStart" class="marker cross flowchart-v2" viewBox="0 0 11 11" refX="-1" refY="5.2" markerUnits="userSpaceOnUse" markerWidth="11" markerHeight="11" orient="auto"><path d="M 1,1 l 9,9 M 10,1 l -9,9" class="arrowMarkerPath" style="stroke-width: 2; stroke-dasharray: 1, 0;"/></marker><marker id="my-svg_flowchart-v2-crossEnd-margin" class="marker cross flowchart-v2" viewBox="0 0 15 15" refX="17.7" refY="7.5" markerUnits="userSpaceOnUse" markerWidth="12" markerHeight="12" orient="auto"><path d="M 1,1 L 14,14 M 1,14 L 14,1" class="arrowMarkerPath" style="stroke-width: 2.5;"/></marker><marker id="my-svg_flowchart-v2-crossStart-margin" class="marker cross flowchart-v2" viewBox="0 0 15 15" refX="-3.5" refY="7.5" markerUnits="userSpaceOnUse" markerWidth="12" markerHeight="12" orient="auto"><path d="M 1,1 L 14,14 M 1,14 L 14,1" class="arrowMarkerPath" style="stroke-width: 2.5; stroke-dasharray: 1, 0;"/></marker><g class="root"><g class="clusters"/><g class="edgePaths"><path d="M268,119.86L272.17,119.86C276.33,119.86,284.67,119.86,292.33,119.86C300,119.86,307,119.86,310.5,119.86L314,119.86" id="my-svg-L_a_b_0" class="edge-thickness-normal edge-pattern-solid edge-thickness-normal edge-pattern-solid flowchart-link" style=";" data-edge="true" data-et="edge" data-id="L_a_b_0" data-points="W3sieCI6MjY4LCJ5IjoxMTkuODU2NjIwNzg4NTc0MjJ9LHsieCI6MjkzLCJ5IjoxMTkuODU2NjIwNzg4NTc0MjJ9LHsieCI6MzE4LCJ5IjoxMTkuODU2NjIwNzg4NTc0MjJ9XQ==" data-look="classic" marker-end="url(#my-svg_flowchart-v2-pointEnd)"/><path d="M578,119.86L582.17,119.86C586.33,119.86,594.67,119.86,602.33,119.86C610,119.86,617,119.86,620.5,119.86L624,119.86" id="my-svg-L_b_c_0" class="edge-thickness-normal edge-pattern-solid edge-thickness-normal edge-pattern-solid flowchart-link" style=";" data-edge="true" data-et="edge" data-id="L_b_c_0" data-points="W3sieCI6NTc4LCJ5IjoxMTkuODU2NjIwNzg4NTc0MjJ9LHsieCI6NjAzLCJ5IjoxMTkuODU2NjIwNzg4NTc0MjJ9LHsieCI6NjI4LCJ5IjoxMTkuODU2NjIwNzg4NTc0MjJ9XQ==" data-look="classic" marker-end="url(#my-svg_flowchart-v2-pointEnd)"/><path d="M888,119.86L892.17,119.86C896.33,119.86,904.67,119.86,912.33,119.86C920,119.86,927,119.86,930.5,119.86L934,119.86" id="my-svg-L_c_d_0" class="edge-thickness-normal edge-pattern-solid edge-thickness-normal edge-pattern-solid flowchart-link" style=";" data-edge="true" data-et="edge" data-id="L_c_d_0" data-points="W3sieCI6ODg4LCJ5IjoxMTkuODU2NjIwNzg4NTc0MjJ9LHsieCI6OTEzLCJ5IjoxMTkuODU2NjIwNzg4NTc0MjJ9LHsieCI6OTM4LCJ5IjoxMTkuODU2NjIwNzg4NTc0MjJ9XQ==" data-look="classic" marker-end="url(#my-svg_flowchart-v2-pointEnd)"/><path d="M1107.35,82.11L1119.73,75.01C1132.11,67.91,1156.88,53.7,1174.77,46.68C1192.66,39.65,1203.67,39.8,1209.18,39.87L1214.69,39.95" id="my-svg-L_d_e_0" class="edge-thickness-normal edge-pattern-solid edge-thickness-normal edge-pattern-solid flowchart-link" style=";" data-edge="true" data-et="edge" data-id="L_d_e_0" data-points="W3sieCI6MTEwNy4zNDk3NTgyODY3OTUxLCJ5Ijo4Mi4xMTI2MjkwNzUzNjkzMX0seyJ4IjoxMTgxLjY0MDYyNSwieSI6MzkuNX0seyJ4IjoxMjE4LjY4NzQ5OTk5OTk5OCwieSI6NDB9XQ==" data-look="classic" marker-end="url(#my-svg_flowchart-v2-pointEnd)"/><path d="M1107.35,157.6L1119.73,164.7C1132.11,171.81,1156.88,186.01,1175.99,193.11C1195.11,200.21,1208.58,200.21,1215.31,200.21L1222.05,200.21" id="my-svg-L_d_f_0" class="edge-thickness-normal edge-pattern-solid edge-thickness-normal edge-pattern-solid flowchart-link" style=";" data-edge="true" data-et="edge" data-id="L_d_f_0" data-points="W3sieCI6MTEwNy4zNDk3NTgyODY3OTUxLCJ5IjoxNTcuNjAwNjEyNTAxNzc5MTV9LHsieCI6MTE4MS42NDA2MjUsInkiOjIwMC4yMTMyNDE1NzcxNDg0NH0seyJ4IjoxMjI2LjA0NjMxODA1NDE5OTIsInkiOjIwMC4yMTMyNDE1NzcxNDg0NH1d" data-look="classic" marker-end="url(#my-svg_flowchart-v2-pointEnd)"/></g><g class="edgeLabels"><g class="edgeLabel"><g class="label" data-id="L_a_b_0" transform="translate(0, 0)"><foreignObject width="0" height="0"><div xmlns="http://www.w3.org/1999/xhtml" class="labelBkg" style="display: table-cell; white-space: nowrap; line-height: 1.5; max-width: 200px; text-align: center;"><span class="edgeLabel"></span></div></foreignObject></g></g><g class="edgeLabel"><g class="label" data-id="L_b_c_0" transform="translate(0, 0)"><foreignObject width="0" height="0"><div xmlns="http://www.w3.org/1999/xhtml" class="labelBkg" style="display: table-cell; white-space: nowrap; line-height: 1.5; max-width: 200px; text-align: center;"><span class="edgeLabel"></span></div></foreignObject></g></g><g class="edgeLabel"><g class="label" data-id="L_c_d_0" transform="translate(0, 0)"><foreignObject width="0" height="0"><div xmlns="http://www.w3.org/1999/xhtml" class="labelBkg" style="display: table-cell; white-space: nowrap; line-height: 1.5; max-width: 200px; text-align: center;"><span class="edgeLabel"></span></div></foreignObject></g></g><g class="edgeLabel" transform="translate(1181.64, 39.5)"><g class="label" data-id="L_d_e_0" transform="translate(-11.55, -12)"><foreignObject width="23.09" height="24"><div xmlns="http://www.w3.org/1999/xhtml" class="labelBkg" style="display: table-cell; white-space: nowrap; line-height: 1.5; max-width: 200px; text-align: center;"><span class="edgeLabel"><p>yes</p></span></div></foreignObject></g></g><g class="edgeLabel" transform="translate(1181.64, 200.21)"><g class="label" data-id="L_d_f_0" transform="translate(-8.66, -12)"><foreignObject width="17.33" height="24"><div xmlns="http://www.w3.org/1999/xhtml" class="labelBkg" style="display: table-cell; white-space: nowrap; line-height: 1.5; max-width: 200px; text-align: center;"><span class="edgeLabel"><p>no</p></span></div></foreignObject></g></g></g><g class="nodes"><g class="node default" id="my-svg-flowchart-a-0" data-look="classic" transform="translate(138, 119.86)"><rect class="basic label-container" style="" x="-130" y="-51" width="260" height="102"/><g class="label" style="" transform="translate(-100, -36)"><rect/><foreignObject width="200" height="72"><div xmlns="http://www.w3.org/1999/xhtml" style="display: table; white-space: break-spaces; line-height: 1.5; max-width: 200px; text-align: center; width: 200px;"><span class="nodeLabel"><p>PATCH /api/v1/videos/film-reklam-video</p></span></div></foreignObject></g></g><g class="node default" id="my-svg-flowchart-b-1" data-look="classic" transform="translate(448, 119.86)"><rect class="basic label-container" style="" x="-130" y="-39" width="260" height="78"/><g class="label" style="" transform="translate(-100, -24)"><rect/><foreignObject width="200" height="48"><div xmlns="http://www.w3.org/1999/xhtml" style="display: table; white-space: break-spaces; line-height: 1.5; max-width: 200px; text-align: center; width: 200px;"><span class="nodeLabel"><p>New object uploaded, row saved with the new URL</p></span></div></foreignObject></g></g><g class="node default" id="my-svg-flowchart-c-2" data-look="classic" transform="translate(758, 119.86)"><rect class="basic label-container" style="" x="-130" y="-75" width="260" height="150"/><g class="label" style="" transform="translate(-100, -60)"><rect/><foreignObject width="200" height="120"><div xmlns="http://www.w3.org/1999/xhtml" style="display: table; white-space: break-spaces; line-height: 1.5; max-width: 200px; text-align: center; width: 200px;"><span class="nodeLabel"><p>s3Service.deleteFile removes the previous object,<br />still inside the same transaction</p></span></div></foreignObject></g></g><g class="node default" id="my-svg-flowchart-d-3" data-look="classic" transform="translate(1041.55, 119.86)"><polygon points="103.55,0 207.09,-103.55 103.55,-207.09 0,-103.55" class="label-container" transform="translate(-103.05, 103.55)"/><g class="label" style="" transform="translate(-76.55, -12)"><rect/><foreignObject width="153.09" height="24"><div xmlns="http://www.w3.org/1999/xhtml" style="display: table-cell; white-space: nowrap; line-height: 1.5; max-width: 200px; text-align: center;"><span class="nodeLabel"><p>Transaction commits?</p></span></div></foreignObject></g></g><g class="node default" id="my-svg-flowchart-e-4" data-look="classic" transform="translate(1333.55, 39.5)"><g class="basic label-container outer-path"><path d="M-83.88 -31.5 C-17.78 -31.5, 48.31 -31.5, 83.88 -31.5 C83.88 -31.5, 83.88 -31.5, 83.88 -31.5 C84.38 -31.48, 84.89 -31.47, 85.89 -31.44 C86.6 -31.37, 87.31 -31.3, 87.9 -31.24 C88.42 -31.16, 88.93 -31.08, 89.9 -30.92 C90.38 -30.81, 90.86 -30.7, 91.87 -30.47 C92.62 -30.25, 93.37 -30.02, 93.8 -29.9 C94.44 -29.66, 95.07 -29.43, 95.7 -29.2 C96.07 -29.03, 96.44 -28.87, 97.54 -28.38 C98.1 -28.09, 98.66 -27.8, 99.33 -27.45 C99.87 -27.12, 100.4 -26.8, 101.06 -26.4 C101.67 -25.97, 102.29 -25.54, 102.72 -25.24 C103.1 -24.94, 103.49 -24.63, 104.29 -23.99 C104.66 -23.65, 105.02 -23.32, 105.79 -22.63 C106.08 -22.33, 106.37 -22.03, 107.19 -21.18 C107.52 -20.79, 107.85 -20.41, 108.5 -19.64 C108.91 -19.09, 109.32 -18.54, 109.71 -18.02 C109.94 -17.67, 110.16 -17.33, 110.81 -16.33 C111.06 -15.89, 111.31 -15.45, 111.8 -14.57 C111.98 -14.21, 112.15 -13.84, 112.68 -12.75 C112.93 -12.13, 113.18 -11.51, 113.44 -10.88 C113.68 -10.16, 113.91 -9.44, 114.07 -8.96 C114.2 -8.48, 114.33 -8, 114.59 -7.01 C114.71 -6.37, 114.83 -5.73, 114.97 -5.03 C115.03 -4.56, 115.09 -4.09, 115.23 -3.02 C115.26 -2.49, 115.3 -1.95, 115.36 -1.01 C115.36 -0.2, 115.36 0.61, 115.36 1.01 C115.32 1.67, 115.27 2.34, 115.23 3.02 C115.16 3.58, 115.09 4.14, 114.97 5.03 C114.83 5.77, 114.68 6.52, 114.59 7.01 C114.43 7.61, 114.27 8.2, 114.07 8.96 C113.92 9.42, 113.77 9.88, 113.44 10.88 C113.15 11.58, 112.87 12.28, 112.68 12.75 C112.38 13.37, 112.08 13.99, 111.8 14.57 C111.52 15.08, 111.23 15.59, 110.81 16.33 C110.51 16.79, 110.22 17.24, 109.71 18.02 C109.47 18.35, 109.22 18.67, 108.5 19.64 C107.99 20.24, 107.47 20.85, 107.19 21.18 C106.69 21.7, 106.19 22.22, 105.79 22.63 C105.25 23.12, 104.71 23.61, 104.29 23.99 C103.69 24.46, 103.09 24.94, 102.72 25.24 C102.12 25.66, 101.52 26.08, 101.06 26.4 C100.45 26.77, 99.83 27.14, 99.33 27.45 C98.93 27.66, 98.52 27.87, 97.54 28.38 C96.97 28.64, 96.39 28.89, 95.7 29.2 C95.27 29.36, 94.84 29.51, 93.8 29.9 C93.04 30.12, 92.29 30.35, 91.87 30.47 C91.34 30.59, 90.81 30.71, 89.9 30.92 C89.49 30.98, 89.08 31.05, 87.9 31.24 C87.18 31.31, 86.45 31.38, 85.89 31.44 C85.16 31.46, 84.42 31.48, 83.88 31.5 C83.88 31.5, 83.88 31.5, 83.88 31.5 C36.43 31.5, -11.01 31.5, -83.88 31.5 C-84.47 31.48, -85.06 31.46, -85.89 31.44 C-86.54 31.37, -87.19 31.31, -87.9 31.24 C-88.44 31.15, -88.98 31.07, -89.9 30.92 C-90.39 30.81, -90.88 30.69, -91.87 30.47 C-92.59 30.25, -93.32 30.04, -93.8 29.9 C-94.52 29.63, -95.24 29.37, -95.7 29.2 C-96.12 29.01, -96.54 28.83, -97.54 28.38 C-98.24 28.02, -98.94 27.65, -99.33 27.45 C-99.76 27.18, -100.2 26.92, -101.06 26.4 C-101.52 26.08, -101.99 25.75, -102.72 25.24 C-103.1 24.94, -103.49 24.63, -104.29 23.99 C-104.78 23.55, -105.26 23.11, -105.79 22.63 C-106.35 22.05, -106.91 21.47, -107.19 21.18 C-107.62 20.67, -108.05 20.17, -108.5 19.64 C-108.83 19.2, -109.15 18.77, -109.71 18.02 C-109.98 17.61, -110.25 17.2, -110.81 16.33 C-111.13 15.76, -111.46 15.19, -111.8 14.57 C-111.98 14.2, -112.16 13.83, -112.68 12.75 C-112.85 12.32, -113.03 11.88, -113.44 10.88 C-113.67 10.17, -113.91 9.46, -114.07 8.96 C-114.21 8.46, -114.34 7.95, -114.59 7.01 C-114.68 6.52, -114.77 6.04, -114.97 5.03 C-115.06 4.37, -115.14 3.72, -115.23 3.02 C-115.27 2.38, -115.31 1.74, -115.36 1.01 C-115.36 0.41, -115.36 -0.2, -115.36 -1.01 C-115.33 -1.52, -115.29 -2.04, -115.23 -3.02 C-115.15 -3.62, -115.08 -4.22, -114.97 -5.03 C-114.83 -5.75, -114.69 -6.46, -114.59 -7.01 C-114.48 -7.43, -114.37 -7.84, -114.07 -8.96 C-113.83 -9.7, -113.58 -10.45, -113.44 -10.88 C-113.14 -11.62, -112.83 -12.37, -112.68 -12.75 C-112.48 -13.17, -112.28 -13.58, -111.8 -14.57 C-111.49 -15.12, -111.19 -15.66, -110.81 -16.33 C-110.38 -17, -109.94 -17.67, -109.71 -18.02 C-109.33 -18.53, -108.95 -19.04, -108.5 -19.64 C-108.01 -20.22, -107.52 -20.79, -107.19 -21.18 C-106.86 -21.52, -106.53 -21.86, -105.79 -22.63 C-105.29 -23.08, -104.79 -23.54, -104.29 -23.99 C-103.88 -24.32, -103.47 -24.64, -102.72 -25.24 C-102.21 -25.6, -101.7 -25.95, -101.06 -26.4 C-100.6 -26.68, -100.14 -26.96, -99.33 -27.45 C-98.81 -27.72, -98.29 -27.99, -97.54 -28.38 C-96.91 -28.66, -96.28 -28.94, -95.7 -29.2 C-95.19 -29.38, -94.68 -29.57, -93.8 -29.9 C-93.06 -30.12, -92.32 -30.34, -91.87 -30.47 C-91.27 -30.61, -90.68 -30.74, -89.9 -30.92 C-89.34 -31.01, -88.78 -31.1, -87.9 -31.24 C-87.36 -31.29, -86.81 -31.35, -85.89 -31.44 C-85.21 -31.46, -84.53 -31.48, -83.88 -31.5 C-83.88 -31.5, -83.88 -31.5, -83.88 -31.5" stroke="none" stroke-width="0" fill="#ECECFF" style=""/><path d="M-83.88 -31.5 C-37.57 -31.5, 8.73 -31.5, 83.88 -31.5 M-83.88 -31.5 C-19.65 -31.5, 44.57 -31.5, 83.88 -31.5 M83.88 -31.5 C83.88 -31.5, 83.88 -31.5, 83.88 -31.5 M83.88 -31.5 C83.88 -31.5, 83.88 -31.5, 83.88 -31.5 M83.88 -31.5 C84.29 -31.49, 84.7 -31.47, 85.89 -31.44 M83.88 -31.5 C84.45 -31.48, 85.03 -31.46, 85.89 -31.44 M85.89 -31.44 C86.52 -31.37, 87.15 -31.31, 87.9 -31.24 M85.89 -31.44 C86.31 -31.4, 86.72 -31.36, 87.9 -31.24 M87.9 -31.24 C88.53 -31.14, 89.15 -31.04, 89.9 -30.92 M87.9 -31.24 C88.56 -31.14, 89.22 -31.03, 89.9 -30.92 M89.9 -30.92 C90.48 -30.79, 91.06 -30.65, 91.87 -30.47 M89.9 -30.92 C90.4 -30.8, 90.91 -30.69, 91.87 -30.47 M91.87 -30.47 C92.52 -30.27, 93.18 -30.08, 93.8 -29.9 M91.87 -30.47 C92.46 -30.29, 93.05 -30.12, 93.8 -29.9 M93.8 -29.9 C94.34 -29.7, 94.89 -29.5, 95.7 -29.2 M93.8 -29.9 C94.48 -29.64, 95.16 -29.39, 95.7 -29.2 M95.7 -29.2 C96.3 -28.93, 96.9 -28.66, 97.54 -28.38 M95.7 -29.2 C96.27 -28.94, 96.84 -28.69, 97.54 -28.38 M97.54 -28.38 C98.19 -28.04, 98.83 -27.71, 99.33 -27.45 M97.54 -28.38 C98.08 -28.1, 98.62 -27.82, 99.33 -27.45 M99.33 -27.45 C99.87 -27.12, 100.41 -26.79, 101.06 -26.4 M99.33 -27.45 C99.93 -27.08, 100.53 -26.72, 101.06 -26.4 M101.06 -26.4 C101.62 -26.01, 102.17 -25.62, 102.72 -25.24 M101.06 -26.4 C101.71 -25.95, 102.35 -25.5, 102.72 -25.24 M102.72 -25.24 C103.34 -24.75, 103.96 -24.25, 104.29 -23.99 M102.72 -25.24 C103.29 -24.79, 103.86 -24.34, 104.29 -23.99 M104.29 -23.99 C104.61 -23.7, 104.93 -23.41, 105.79 -22.63 M104.29 -23.99 C104.87 -23.47, 105.44 -22.95, 105.79 -22.63 M105.79 -22.63 C106.29 -22.11, 106.79 -21.6, 107.19 -21.18 M105.79 -22.63 C106.22 -22.18, 106.65 -21.74, 107.19 -21.18 M107.19 -21.18 C107.47 -20.85, 107.75 -20.52, 108.5 -19.64 M107.19 -21.18 C107.61 -20.68, 108.03 -20.19, 108.5 -19.64 M108.5 -19.64 C108.87 -19.15, 109.23 -18.66, 109.71 -18.02 M108.5 -19.64 C108.87 -19.15, 109.24 -18.65, 109.71 -18.02 M109.71 -18.02 C109.99 -17.59, 110.27 -17.16, 110.81 -16.33 M109.71 -18.02 C109.99 -17.59, 110.27 -17.16, 110.81 -16.33 M110.81 -16.33 C111.06 -15.89, 111.3 -15.46, 111.8 -14.57 M110.81 -16.33 C111.19 -15.65, 111.57 -14.98, 111.8 -14.57 M111.8 -14.57 C112.15 -13.84, 112.5 -13.12, 112.68 -12.75 M111.8 -14.57 C111.99 -14.18, 112.18 -13.79, 112.68 -12.75 M112.68 -12.75 C112.85 -12.32, 113.03 -11.89, 113.44 -10.88 M112.68 -12.75 C112.9 -12.2, 113.13 -11.64, 113.44 -10.88 M113.44 -10.88 C113.63 -10.29, 113.83 -9.71, 114.07 -8.96 M113.44 -10.88 C113.61 -10.37, 113.78 -9.86, 114.07 -8.96 M114.07 -8.96 C114.26 -8.23, 114.46 -7.5, 114.59 -7.01 M114.07 -8.96 C114.22 -8.41, 114.36 -7.86, 114.59 -7.01 M114.59 -7.01 C114.67 -6.59, 114.75 -6.17, 114.97 -5.03 M114.59 -7.01 C114.67 -6.55, 114.76 -6.09, 114.97 -5.03 M114.97 -5.03 C115.06 -4.34, 115.15 -3.66, 115.23 -3.02 M114.97 -5.03 C115.05 -4.41, 115.13 -3.8, 115.23 -3.02 M115.23 -3.02 C115.26 -2.51, 115.3 -1.99, 115.36 -1.01 M115.23 -3.02 C115.28 -2.29, 115.32 -1.56, 115.36 -1.01 M115.36 -1.01 C115.36 -0.53, 115.36 -0.06, 115.36 1.01 M115.36 -1.01 C115.36 -0.35, 115.36 0.32, 115.36 1.01 M115.36 1.01 C115.32 1.58, 115.29 2.14, 115.23 3.02 M115.36 1.01 C115.33 1.51, 115.29 2.01, 115.23 3.02 M115.23 3.02 C115.14 3.71, 115.05 4.4, 114.97 5.03 M115.23 3.02 C115.17 3.46, 115.12 3.89, 114.97 5.03 M114.97 5.03 C114.84 5.72, 114.7 6.42, 114.59 7.01 M114.97 5.03 C114.82 5.79, 114.67 6.56, 114.59 7.01 M114.59 7.01 C114.42 7.65, 114.25 8.28, 114.07 8.96 M114.59 7.01 C114.44 7.57, 114.29 8.14, 114.07 8.96 M114.07 8.96 C113.85 9.63, 113.63 10.3, 113.44 10.88 M114.07 8.96 C113.88 9.56, 113.68 10.15, 113.44 10.88 M113.44 10.88 C113.16 11.57, 112.88 12.25, 112.68 12.75 M113.44 10.88 C113.22 11.43, 112.99 11.97, 112.68 12.75 M112.68 12.75 C112.49 13.13, 112.31 13.52, 111.8 14.57 M112.68 12.75 C112.47 13.19, 112.25 13.63, 111.8 14.57 M111.8 14.57 C111.44 15.21, 111.08 15.86, 110.81 16.33 M111.8 14.57 C111.47 15.16, 111.14 15.75, 110.81 16.33 M110.81 16.33 C110.38 17, 109.95 17.66, 109.71 18.02 M110.81 16.33 C110.54 16.74, 110.27 17.16, 109.71 18.02 M109.71 18.02 C109.33 18.53, 108.95 19.05, 108.5 19.64 M109.71 18.02 C109.34 18.51, 108.98 19, 108.5 19.64 M108.5 19.64 C108.22 19.97, 107.94 20.3, 107.19 21.18 M108.5 19.64 C108.03 20.2, 107.55 20.76, 107.19 21.18 M107.19 21.18 C106.79 21.59, 106.39 22, 105.79 22.63 M107.19 21.18 C106.68 21.71, 106.16 22.24, 105.79 22.63 M105.79 22.63 C105.37 23.01, 104.95 23.39, 104.29 23.99 M105.79 22.63 C105.31 23.06, 104.83 23.5, 104.29 23.99 M104.29 23.99 C103.93 24.27, 103.57 24.56, 102.72 25.24 M104.29 23.99 C103.96 24.25, 103.63 24.51, 102.72 25.24 M102.72 25.24 C102.27 25.55, 101.83 25.87, 101.06 26.4 M102.72 25.24 C102.18 25.62, 101.65 25.99, 101.06 26.4 M101.06 26.4 C100.51 26.73, 99.96 27.07, 99.33 27.45 M101.06 26.4 C100.71 26.61, 100.36 26.82, 99.33 27.45 M99.33 27.45 C98.85 27.7, 98.36 27.95, 97.54 28.38 M99.33 27.45 C98.93 27.66, 98.53 27.87, 97.54 28.38 M97.54 28.38 C97.01 28.62, 96.47 28.85, 95.7 29.2 M97.54 28.38 C97.01 28.62, 96.48 28.85, 95.7 29.2 M95.7 29.2 C94.97 29.47, 94.24 29.73, 93.8 29.9 M95.7 29.2 C95.05 29.44, 94.4 29.67, 93.8 29.9 M93.8 29.9 C93.1 30.1, 92.39 30.31, 91.87 30.47 M93.8 29.9 C93.32 30.04, 92.83 30.18, 91.87 30.47 M91.87 30.47 C91.44 30.57, 91.02 30.66, 89.9 30.92 M91.87 30.47 C91.43 30.57, 91 30.67, 89.9 30.92 M89.9 30.92 C89.43 30.99, 88.97 31.07, 87.9 31.24 M89.9 30.92 C89.18 31.03, 88.47 31.15, 87.9 31.24 M87.9 31.24 C87.25 31.3, 86.59 31.37, 85.89 31.44 M87.9 31.24 C87.28 31.3, 86.66 31.36, 85.89 31.44 M85.89 31.44 C85.28 31.45, 84.67 31.47, 83.88 31.5 M85.89 31.44 C85.17 31.46, 84.45 31.48, 83.88 31.5 M83.88 31.5 C83.88 31.5, 83.88 31.5, 83.88 31.5 M83.88 31.5 C83.88 31.5, 83.88 31.5, 83.88 31.5 M83.88 31.5 C25.88 31.5, -32.11 31.5, -83.88 31.5 M83.88 31.5 C48.67 31.5, 13.46 31.5, -83.88 31.5 M-83.88 31.5 C-84.52 31.48, -85.16 31.46, -85.89 31.44 M-83.88 31.5 C-84.65 31.48, -85.42 31.45, -85.89 31.44 M-85.89 31.44 C-86.65 31.36, -87.41 31.29, -87.9 31.24 M-85.89 31.44 C-86.61 31.37, -87.32 31.3, -87.9 31.24 M-87.9 31.24 C-88.35 31.17, -88.8 31.1, -89.9 30.92 M-87.9 31.24 C-88.67 31.12, -89.43 30.99, -89.9 30.92 M-89.9 30.92 C-90.31 30.83, -90.72 30.73, -91.87 30.47 M-89.9 30.92 C-90.47 30.79, -91.04 30.66, -91.87 30.47 M-91.87 30.47 C-92.29 30.34, -92.72 30.22, -93.8 29.9 M-91.87 30.47 C-92.43 30.3, -93 30.13, -93.8 29.9 M-93.8 29.9 C-94.36 29.69, -94.92 29.48, -95.7 29.2 M-93.8 29.9 C-94.24 29.73, -94.69 29.57, -95.7 29.2 M-95.7 29.2 C-96.24 28.96, -96.78 28.72, -97.54 28.38 M-95.7 29.2 C-96.09 29.02, -96.48 28.85, -97.54 28.38 M-97.54 28.38 C-98.25 28.01, -98.96 27.64, -99.33 27.45 M-97.54 28.38 C-98.08 28.1, -98.62 27.82, -99.33 27.45 M-99.33 27.45 C-99.73 27.2, -100.14 26.96, -101.06 26.4 M-99.33 27.45 C-99.84 27.14, -100.35 26.83, -101.06 26.4 M-101.06 26.4 C-101.45 26.12, -101.85 25.85, -102.72 25.24 M-101.06 26.4 C-101.54 26.06, -102.02 25.73, -102.72 25.24 M-102.72 25.24 C-103.22 24.84, -103.72 24.45, -104.29 23.99 M-102.72 25.24 C-103.26 24.81, -103.8 24.38, -104.29 23.99 M-104.29 23.99 C-104.67 23.65, -105.04 23.31, -105.79 22.63 M-104.29 23.99 C-104.66 23.66, -105.02 23.33, -105.79 22.63 M-105.79 22.63 C-106.15 22.25, -106.51 21.88, -107.19 21.18 M-105.79 22.63 C-106.28 22.12, -106.77 21.61, -107.19 21.18 M-107.19 21.18 C-107.54 20.77, -107.9 20.35, -108.5 19.64 M-107.19 21.18 C-107.52 20.8, -107.84 20.41, -108.5 19.64 M-108.5 19.64 C-108.86 19.15, -109.23 18.67, -109.71 18.02 M-108.5 19.64 C-108.8 19.24, -109.1 18.84, -109.71 18.02 M-109.71 18.02 C-110.07 17.47, -110.43 16.92, -110.81 16.33 M-109.71 18.02 C-110.12 17.4, -110.53 16.77, -110.81 16.33 M-110.81 16.33 C-111.04 15.93, -111.26 15.53, -111.8 14.57 M-110.81 16.33 C-111.05 15.9, -111.3 15.47, -111.8 14.57 M-111.8 14.57 C-112.05 14.05, -112.3 13.54, -112.68 12.75 M-111.8 14.57 C-111.98 14.2, -112.16 13.83, -112.68 12.75 M-112.68 12.75 C-112.93 12.14, -113.17 11.53, -113.44 10.88 M-112.68 12.75 C-112.94 12.12, -113.19 11.48, -113.44 10.88 M-113.44 10.88 C-113.68 10.14, -113.93 9.41, -114.07 8.96 M-113.44 10.88 C-113.59 10.41, -113.75 9.94, -114.07 8.96 M-114.07 8.96 C-114.19 8.54, -114.3 8.11, -114.59 7.01 M-114.07 8.96 C-114.27 8.23, -114.46 7.5, -114.59 7.01 M-114.59 7.01 C-114.7 6.41, -114.82 5.8, -114.97 5.03 M-114.59 7.01 C-114.72 6.34, -114.85 5.67, -114.97 5.03 M-114.97 5.03 C-115.06 4.31, -115.16 3.6, -115.23 3.02 M-114.97 5.03 C-115.03 4.58, -115.09 4.14, -115.23 3.02 M-115.23 3.02 C-115.27 2.33, -115.32 1.63, -115.36 1.01 M-115.23 3.02 C-115.28 2.27, -115.33 1.52, -115.36 1.01 M-115.36 1.01 C-115.36 0.59, -115.36 0.18, -115.36 -1.01 M-115.36 1.01 C-115.36 0.45, -115.36 -0.12, -115.36 -1.01 M-115.36 -1.01 C-115.31 -1.75, -115.26 -2.49, -115.23 -3.02 M-115.36 -1.01 C-115.31 -1.71, -115.27 -2.41, -115.23 -3.02 M-115.23 -3.02 C-115.16 -3.55, -115.09 -4.08, -114.97 -5.03 M-115.23 -3.02 C-115.15 -3.65, -115.07 -4.28, -114.97 -5.03 M-114.97 -5.03 C-114.87 -5.55, -114.77 -6.07, -114.59 -7.01 M-114.97 -5.03 C-114.82 -5.81, -114.67 -6.59, -114.59 -7.01 M-114.59 -7.01 C-114.41 -7.66, -114.24 -8.32, -114.07 -8.96 M-114.59 -7.01 C-114.46 -7.48, -114.34 -7.95, -114.07 -8.96 M-114.07 -8.96 C-113.89 -9.53, -113.7 -10.09, -113.44 -10.88 M-114.07 -8.96 C-113.91 -9.45, -113.75 -9.93, -113.44 -10.88 M-113.44 -10.88 C-113.22 -11.42, -113 -11.96, -112.68 -12.75 M-113.44 -10.88 C-113.25 -11.34, -113.06 -11.81, -112.68 -12.75 M-112.68 -12.75 C-112.42 -13.29, -112.16 -13.82, -111.8 -14.57 M-112.68 -12.75 C-112.36 -13.41, -112.04 -14.08, -111.8 -14.57 M-111.8 -14.57 C-111.5 -15.11, -111.19 -15.65, -110.81 -16.33 M-111.8 -14.57 C-111.42 -15.25, -111.03 -15.94, -110.81 -16.33 M-110.81 -16.33 C-110.48 -16.83, -110.16 -17.33, -109.71 -18.02 M-110.81 -16.33 C-110.57 -16.71, -110.32 -17.08, -109.71 -18.02 M-109.71 -18.02 C-109.34 -18.52, -108.97 -19.02, -108.5 -19.64 M-109.71 -18.02 C-109.35 -18.5, -109 -18.98, -108.5 -19.64 M-108.5 -19.64 C-108.15 -20.05, -107.8 -20.47, -107.19 -21.18 M-108.5 -19.64 C-108.09 -20.12, -107.69 -20.6, -107.19 -21.18 M-107.19 -21.18 C-106.9 -21.48, -106.6 -21.79, -105.79 -22.63 M-107.19 -21.18 C-106.63 -21.76, -106.07 -22.34, -105.79 -22.63 M-105.79 -22.63 C-105.33 -23.05, -104.87 -23.46, -104.29 -23.99 M-105.79 -22.63 C-105.37 -23.01, -104.95 -23.39, -104.29 -23.99 M-104.29 -23.99 C-103.86 -24.33, -103.42 -24.68, -102.72 -25.24 M-104.29 -23.99 C-103.7 -24.46, -103.1 -24.94, -102.72 -25.24 M-102.72 -25.24 C-102.12 -25.66, -101.52 -26.08, -101.06 -26.4 M-102.72 -25.24 C-102.28 -25.55, -101.85 -25.85, -101.06 -26.4 M-101.06 -26.4 C-100.49 -26.74, -99.93 -27.08, -99.33 -27.45 M-101.06 -26.4 C-100.37 -26.82, -99.69 -27.23, -99.33 -27.45 M-99.33 -27.45 C-98.71 -27.77, -98.09 -28.09, -97.54 -28.38 M-99.33 -27.45 C-98.65 -27.8, -97.96 -28.16, -97.54 -28.38 M-97.54 -28.38 C-96.83 -28.7, -96.11 -29.01, -95.7 -29.2 M-97.54 -28.38 C-96.85 -28.69, -96.15 -29, -95.7 -29.2 M-95.7 -29.2 C-95.29 -29.35, -94.89 -29.49, -93.8 -29.9 M-95.7 -29.2 C-95.17 -29.39, -94.65 -29.58, -93.8 -29.9 M-93.8 -29.9 C-93.06 -30.11, -92.32 -30.33, -91.87 -30.47 M-93.8 -29.9 C-93.06 -30.11, -92.33 -30.33, -91.87 -30.47 M-91.87 -30.47 C-91.29 -30.6, -90.71 -30.73, -89.9 -30.92 M-91.87 -30.47 C-91.22 -30.62, -90.57 -30.76, -89.9 -30.92 M-89.9 -30.92 C-89.38 -31, -88.86 -31.09, -87.9 -31.24 M-89.9 -30.92 C-89.2 -31.03, -88.51 -31.14, -87.9 -31.24 M-87.9 -31.24 C-87.42 -31.29, -86.94 -31.33, -85.89 -31.44 M-87.9 -31.24 C-87.2 -31.31, -86.49 -31.38, -85.89 -31.44 M-85.89 -31.44 C-85.3 -31.45, -84.71 -31.47, -83.88 -31.5 M-85.89 -31.44 C-85.4 -31.45, -84.9 -31.47, -83.88 -31.5 M-83.88 -31.5 C-83.88 -31.5, -83.88 -31.5, -83.88 -31.5 M-83.88 -31.5 C-83.88 -31.5, -83.88 -31.5, -83.88 -31.5" stroke="#9370DB" stroke-width="1.3" fill="none" stroke-dasharray="0 0" style=""/></g><g class="label" style="" transform="translate(-100, -24)"><rect/><foreignObject width="200" height="48"><div xmlns="http://www.w3.org/1999/xhtml" style="display: table; white-space: break-spaces; line-height: 1.5; max-width: 200px; text-align: center; width: 200px;"><span class="nodeLabel"><p>Consistent. New URL, new object</p></span></div></foreignObject></g></g><g class="node default" id="my-svg-flowchart-f-5" data-look="classic" transform="translate(1333.55, 200.21)"><path d="M0,15.81 a107.5,15.81 0,0,0 215,0 a107.5,15.81 0,0,0 -215,0 l0,126.81 a107.5,15.81 0,0,0 215,0 l0,-126.81" class="basic label-container outer-path" style="" transform="translate(-107.5, -79.21)"/><g class="label" style="" transform="translate(-100, -38)"><rect/><foreignObject width="200" height="96"><div xmlns="http://www.w3.org/1999/xhtml" style="display: table; white-space: break-spaces; line-height: 1.5; max-width: 200px; text-align: center; width: 200px;"><span class="nodeLabel"><p>Orphan B: the row reverts to the old URL<br />but that object is already deleted</p></span></div></foreignObject></g></g></g></g></g><defs><filter id="my-svg-drop-shadow" height="130%" width="130%"><feDropShadow dx="4" dy="4" stdDeviation="0" flood-opacity="0.06" flood-color="#000000"/></filter></defs><defs><filter id="my-svg-drop-shadow-small" height="150%" width="150%"><feDropShadow dx="2" dy="2" stdDeviation="0" flood-opacity="0.06" flood-color="#000000"/></filter></defs></svg>