<svg id="my-svg" width="100%" xmlns="http://www.w3.org/2000/svg" xmlns:xlink="http://www.w3.org/1999/xlink" class="statediagram" style="max-width: 1296px; background-color: white;" viewBox="0 0 1296 1062.2" role="graphics-document document" aria-roledescription="stateDiagram"><style>#my-svg{font-family:"trebuchet ms",verdana,arial,sans-serif;font-size:16px;fill:#333;}@keyframes edge-animation-frame{from{stroke-dashoffset:0;}}@keyframes dash{to{stroke-dashoffset:0;}}#my-svg .edge-animation-slow{stroke-dasharray:9,5!important;stroke-dashoffset:900;animation:dash 50s linear infinite;stroke-linecap:round;}#my-svg .edge-animation-fast{stroke-dasharray:9,5!important;stroke-dashoffset:900;animation:dash 20s linear infinite;stroke-linecap:round;}#my-svg .error-icon{fill:#552222;}#my-svg .error-text{fill:#552222;stroke:#552222;}#my-svg .edge-thickness-normal{stroke-width:1px;}#my-svg .edge-thickness-thick{stroke-width:3.5px;}#my-svg .edge-pattern-solid{stroke-dasharray:0;}#my-svg .edge-thickness-invisible{stroke-width:0;fill:none;}#my-svg .edge-pattern-dashed{stroke-dasharray:3;}#my-svg .edge-pattern-dotted{stroke-dasharray:2;}#my-svg .marker{fill:#333333;stroke:#333333;}#my-svg .marker.cross{stroke:#333333;}#my-svg svg{font-family:"trebuchet ms",verdana,arial,sans-serif;font-size:16px;}#my-svg p{margin:0;}#my-svg defs [id$="-barbEnd"]{fill:#333333;stroke:#333333;}#my-svg g.stateGroup text{fill:#9370DB;stroke:none;font-size:10px;}#my-svg g.stateGroup text{fill:#333;stroke:none;font-size:10px;}#my-svg g.stateGroup .state-title{font-weight:bolder;fill:#131300;}#my-svg g.stateGroup rect{fill:#ECECFF;stroke:#9370DB;}#my-svg g.stateGroup line{stroke:#333333;stroke-width:1;}#my-svg .transition{stroke:#333333;stroke-width:1;fill:none;}#my-svg .stateGroup .composit{fill:white;border-bottom:1px;}#my-svg .stateGroup .alt-composit{fill:#e0e0e0;border-bottom:1px;}#my-svg .state-note{stroke:#aaaa33;fill:#fff5ad;}#my-svg .state-note text{fill:black;stroke:none;font-size:10px;}#my-svg .stateLabel .box{stroke:none;stroke-width:0;fill:#ECECFF;opacity:0.5;}#my-svg .edgeLabel .label rect{fill:#ECECFF;opacity:0.5;}#my-svg .edgeLabel{background-color:rgba(232,232,232, 0.8);text-align:center;}#my-svg .edgeLabel p{background-color:rgba(232,232,232, 0.8);}#my-svg .edgeLabel rect{opacity:0.5;background-color:rgba(232,232,232, 0.8);fill:rgba(232,232,232, 0.8);}#my-svg .edgeLabel .label text{fill:#333;}#my-svg .label div .edgeLabel{color:#333;}#my-svg .stateLabel text{fill:#131300;font-size:10px;font-weight:bold;}#my-svg .node circle.state-start{fill:#333333;stroke:#333333;}#my-svg .node .fork-join{fill:#333333;stroke:#333333;}#my-svg .node circle.state-end{fill:#9370DB;stroke:white;stroke-width:1.5;}#my-svg .end-state-inner{fill:white;stroke-width:1.5;}#my-svg .node rect{fill:#ECECFF;stroke:#9370DB;stroke-width:1px;}#my-svg .node polygon{fill:#ECECFF;stroke:#9370DB;stroke-width:1px;}#my-svg [id$="-barbEnd"]{fill:#333333;}#my-svg .statediagram-cluster rect{fill:#ECECFF;stroke:#9370DB;stroke-width:1px;}#my-svg .cluster-label,#my-svg .nodeLabel{color:#131300;}#my-svg .statediagram-cluster rect.outer{rx:5px;ry:5px;}#my-svg .statediagram-state .divider{stroke:#9370DB;}#my-svg .statediagram-state .title-state{rx:5px;ry:5px;}#my-svg .statediagram-cluster.statediagram-cluster .inner{fill:white;}#my-svg .statediagram-cluster.statediagram-cluster-alt .inner{fill:#f0f0f0;}#my-svg .statediagram-cluster .inner{rx:0;ry:0;}#my-svg .statediagram-state rect.basic{rx:5px;ry:5px;}#my-svg .statediagram-state rect.divider{stroke-dasharray:10,10;fill:#f0f0f0;}#my-svg .note-edge{stroke-dasharray:5;}#my-svg .statediagram-note rect{fill:#fff5ad;stroke:#aaaa33;stroke-width:1px;rx:0;ry:0;}#my-svg .statediagram-note rect{fill:#fff5ad;stroke:#aaaa33;stroke-width:1px;rx:0;ry:0;}#my-svg .statediagram-note text{fill:black;}#my-svg .statediagram-note .nodeLabel{color:black;}#my-svg .statediagram .edgeLabel{color:red;}#my-svg [id$="-dependencyStart"],#my-svg [id$="-dependencyEnd"]{fill:#333333;stroke:#333333;stroke-width:1;}#my-svg .statediagramTitleText{text-anchor:middle;font-size:18px;fill:#333;}#my-svg [data-look="neo"].statediagram-cluster rect{fill:#ECECFF;stroke:#9370DB;stroke-width:1;}#my-svg [data-look="neo"].statediagram-cluster rect.outer{rx:5px;ry:5px;filter:drop-shadow(1px 2px 2px rgba(185, 185, 185, 1));}#my-svg .node .neo-node{stroke:#9370DB;}#my-svg [data-look="neo"].node rect,#my-svg [data-look="neo"].cluster rect,#my-svg [data-look="neo"].node polygon{stroke:#9370DB;filter:drop-shadow(1px 2px 2px rgba(185, 185, 185, 1));}#my-svg [data-look="neo"].swimlane.cluster rect{filter:none;}#my-svg [data-look="neo"].node path{stroke:#9370DB;stroke-width:1px;}#my-svg [data-look="neo"].node .outer-path{filter:drop-shadow(1px 2px 2px rgba(185, 185, 185, 1));}#my-svg [data-look="neo"].node .neo-line path{stroke:#9370DB;filter:none;}#my-svg [data-look="neo"].node circle{stroke:#9370DB;filter:drop-shadow(1px 2px 2px rgba(185, 185, 185, 1));}#my-svg [data-look="neo"].node circle .state-start{fill:#000000;}#my-svg [data-look="neo"].icon-shape .icon{fill:#9370DB;filter:drop-shadow(1px 2px 2px rgba(185, 185, 185, 1));}#my-svg [data-look="neo"].icon-shape .icon-neo path{stroke:#9370DB;filter:drop-shadow(1px 2px 2px rgba(185, 185, 185, 1));}#my-svg :root{--mermaid-font-family:"trebuchet ms",verdana,arial,sans-serif;}</style><g><defs><marker id="my-svg_stateDiagram-barbEnd" refX="19" refY="7" markerWidth="20" markerHeight="14" markerUnits="userSpaceOnUse" orient="auto"><path d="M 19,7 L9,13 L14,7 L9,1 Z"/></marker></defs><g class="root"><g class="clusters"/><g class="edgePaths"><path d="M648,22L648,30.17C648,38.33,648,54.67,648,71C648,87.33,648,103.67,648,111.83L648,120" id="my-svg-edge0" class="edge-thickness-normal edge-pattern-solid transition" style="fill:none;;;fill:none" data-edge="true" data-et="edge" data-id="edge0" data-points="W3sieCI6NjQ4LCJ5IjoyMn0seyJ4Ijo2NDgsInkiOjcxfSx7IngiOjY0OCwieSI6MTIwfV0=" data-look="classic" marker-end="url(#my-svg_stateDiagram-barbEnd)"/><path d="M116,978.2L116,984.37C116,990.53,116,1002.87,203.5,1014.3C291,1025.73,466,1036.25,553.5,1041.52L641.01,1046.78" id="my-svg-edge9" class="edge-thickness-normal edge-pattern-solid transition" style="fill:none;;;fill:none" data-edge="true" data-et="edge" data-id="edge9" data-points="W3sieCI6MTE2LCJ5Ijo5NzguMjAwMDEyMjA3MDMxMn0seyJ4IjoxMTYsInkiOjEwMTUuMjAwMDEyMjA3MDMxMn0seyJ4Ijo2NDEuMDA1OTk0MzM2Mjg3MSwieSI6MTA0Ni43NzkzMjAxMzcwMzM0fV0=" data-look="classic" marker-end="url(#my-svg_stateDiagram-barbEnd)"/><path d="M382,978.2L382,984.37C382,990.53,382,1002.87,425.17,1014.23C468.35,1025.59,554.7,1035.97,597.87,1041.17L641.04,1046.36" id="my-svg-edge10" class="edge-thickness-normal edge-pattern-solid transition" style="fill:none;;;fill:none" data-edge="true" data-et="edge" data-id="edge10" data-points="W3sieCI6MzgyLCJ5Ijo5NzguMjAwMDEyMjA3MDMxMn0seyJ4IjozODIsInkiOjEwMTUuMjAwMDEyMjA3MDMxMn0seyJ4Ijo2NDEuMDQzNTEwNjQ1NTI2OSwieSI6MTA0Ni4zNjMxNDEzMDcyNDV9XQ==" data-look="classic" marker-end="url(#my-svg_stateDiagram-barbEnd)"/><path d="M648,990.2L648,994.37C648,998.53,648,1006.87,648,1015.2C648,1023.53,648,1031.86,648,1036.03L648,1040.19" id="my-svg-edge11" class="edge-thickness-normal edge-pattern-solid transition" style="fill:none;;;fill:none" data-edge="true" data-et="edge" data-id="edge11" data-points="W3sieCI6NjQ4LCJ5Ijo5OTAuMjAwMDEyMjA3MDMxMn0seyJ4Ijo2NDgsInkiOjEwMTUuMjAwMDEyMjA3MDMxMn0seyJ4Ijo2NDgsInkiOjEwNDAuMTkzMzY1NTczODgzfV0=" data-look="classic" marker-end="url(#my-svg_stateDiagram-barbEnd)"/><path d="M914,966.2L914,974.37C914,982.53,914,998.87,870.83,1012.23C827.65,1025.59,741.3,1035.97,698.13,1041.17L654.96,1046.36" id="my-svg-edge12" class="edge-thickness-normal edge-pattern-solid transition" style="fill:none;;;fill:none" data-edge="true" data-et="edge" data-id="edge12" data-points="W3sieCI6OTE0LCJ5Ijo5NjYuMjAwMDEyMjA3MDMxMn0seyJ4Ijo5MTQsInkiOjEwMTUuMjAwMDEyMjA3MDMxMn0seyJ4Ijo2NTQuOTU2NDg5MzU0NDczMSwieSI6MTA0Ni4zNjMxNDEzMDcyNDV9XQ==" data-look="classic" marker-end="url(#my-svg_stateDiagram-barbEnd)"/><path d="M1180,978.2L1180,984.37C1180,990.53,1180,1002.87,1092.5,1014.3C1005,1025.73,830,1036.25,742.5,1041.52L654.99,1046.78" id="my-svg-edge13" class="edge-thickness-normal edge-pattern-solid transition" style="fill:none;;;fill:none" data-edge="true" data-et="edge" data-id="edge13" data-points="W3sieCI6MTE4MCwieSI6OTc4LjIwMDAxMjIwNzAzMTJ9LHsieCI6MTE4MCwieSI6MTAxNS4yMDAwMTIyMDcwMzEyfSx7IngiOjY1NC45OTQwMDU2NjM3MTI5LCJ5IjoxMDQ2Ljc3OTMyMDEzNzAzMzR9XQ==" data-look="classic" marker-end="url(#my-svg_stateDiagram-barbEnd)"/><path d="M648,160L648,170.17C648,180.33,648,200.67,648,221C648,241.33,648,261.67,648,271.83L648,282" id="my-svg-edge1" class="edge-thickness-normal edge-pattern-solid transition" style="fill:none;;;fill:none" data-edge="true" data-et="edge" data-id="edge1" data-points="W3sieCI6NjQ4LCJ5IjoxNjB9LHsieCI6NjQ4LCJ5IjoyMjF9LHsieCI6NjQ4LCJ5IjoyODJ9XQ==" data-look="classic" marker-end="url(#my-svg_stateDiagram-barbEnd)"/><path d="M503.89,587.85L439.24,624.08C374.59,660.3,245.3,732.75,180.65,783.14C116,833.53,116,861.87,116,876.03L116,890.2" id="my-svg-edge4" class="edge-thickness-normal edge-pattern-solid transition" style="fill:none;;;fill:none" data-edge="true" data-et="edge" data-id="edge4" data-points="W3sieCI6NTAzLjg4NjcxODc1LCJ5Ijo1ODcuODUyMjA1Mzg5NjQ4NX0seyJ4IjoxMTYsInkiOjgwNS4yMDAwMTIyMDcwMzEyfSx7IngiOjExNiwieSI6ODkwLjIwMDAxMjIwNzAzMTJ9XQ==" data-look="classic" marker-end="url(#my-svg_stateDiagram-barbEnd)"/><path d="M503.89,668.6L483.57,691.37C463.26,714.14,422.63,759.67,402.31,796.6C382,833.53,382,861.87,382,876.03L382,890.2" id="my-svg-edge5" class="edge-thickness-normal edge-pattern-solid transition" style="fill:none;;;fill:none" data-edge="true" data-et="edge" data-id="edge5" data-points="W3sieCI6NTAzLjg4NjcxODc1LCJ5Ijo2NjguNjA0NDA0Njc1NzgxM30seyJ4IjozODIsInkiOjgwNS4yMDAwMTIyMDcwMzEyfSx7IngiOjM4MiwieSI6ODkwLjIwMDAxMjIwNzAzMTJ9XQ==" data-look="classic" marker-end="url(#my-svg_stateDiagram-barbEnd)"/><path d="M648,732.2L648,744.37C648,756.53,648,780.87,648,805.2C648,829.53,648,853.87,648,866.03L648,878.2" id="my-svg-edge6" class="edge-thickness-normal edge-pattern-solid transition" style="fill:none;;;fill:none" data-edge="true" data-et="edge" data-id="edge6" data-points="W3sieCI6NjQ4LCJ5Ijo3MzIuMjAwMDEyMjA3MDMxMn0seyJ4Ijo2NDgsInkiOjgwNS4yMDAwMTIyMDcwMzEyfSx7IngiOjY0OCwieSI6ODc4LjIwMDAxMjIwNzAzMTJ9XQ==" data-look="classic" marker-end="url(#my-svg_stateDiagram-barbEnd)"/><path d="M792.11,668.6L812.43,691.37C832.74,714.14,873.37,759.67,893.69,798.6C914,837.53,914,869.87,914,886.03L914,902.2" id="my-svg-edge7" class="edge-thickness-normal edge-pattern-solid transition" style="fill:none;;;fill:none" data-edge="true" data-et="edge" data-id="edge7" data-points="W3sieCI6NzkyLjExMzI4MTI1LCJ5Ijo2NjguNjA0NDA0Njc1NzgxM30seyJ4Ijo5MTQsInkiOjgwNS4yMDAwMTIyMDcwMzEyfSx7IngiOjkxNCwieSI6OTAyLjIwMDAxMjIwNzAzMTJ9XQ==" data-look="classic" marker-end="url(#my-svg_stateDiagram-barbEnd)"/><path d="M792.11,587.85L856.76,624.08C921.41,660.3,1050.7,732.75,1115.35,783.14C1180,833.53,1180,861.87,1180,876.03L1180,890.2" id="my-svg-edge8" class="edge-thickness-normal edge-pattern-solid transition" style="fill:none;;;fill:none" data-edge="true" data-et="edge" data-id="edge8" data-points="W3sieCI6NzkyLjExMzI4MTI1LCJ5Ijo1ODcuODUyMjA1Mzg5NjQ4NX0seyJ4IjoxMTgwLCJ5Ijo4MDUuMjAwMDEyMjA3MDMxMn0seyJ4IjoxMTgwLCJ5Ijo4OTAuMjAwMDEyMjA3MDMxMn1d" data-look="classic" marker-end="url(#my-svg_stateDiagram-barbEnd)"/></g><g class="edgeLabels"><g class="edgeLabel" transform="translate(648, 71)"><g class="label" data-id="edge0" transform="translate(-100, -24)"><foreignObject width="200" height="48"><div xmlns="http://www.w3.org/1999/xhtml" class="labelBkg" style="display: table; white-space: break-spaces; line-height: 1.5; max-width: 200px; text-align: center; width: 200px;"><span class="edgeLabel"><p>POST /api/auth/login or /api/auth/register</p></span></div></foreignObject></g></g><g class="edgeLabel"><g class="label" data-id="edge9" transform="translate(0, 0)"><foreignObject width="0" height="0"><div xmlns="http://www.w3.org/1999/xhtml" class="labelBkg" style="display: table-cell; white-space: nowrap; line-height: 1.5; max-width: 200px; text-align: center;"><span class="edgeLabel"></span></div></foreignObject></g></g><g class="edgeLabel"><g class="label" data-id="edge10" transform="translate(0, 0)"><foreignObject width="0" height="0"><div xmlns="http://www.w3.org/1999/xhtml" class="labelBkg" style="display: table-cell; white-space: nowrap; line-height: 1.5; max-width: 200px; text-align: center;"><span class="edgeLabel"></span></div></foreignObject></g></g><g class="edgeLabel"><g class="label" data-id="edge11" transform="translate(0, 0)"><foreignObject width="0" height="0"><div xmlns="http://www.w3.org/1999/xhtml" class="labelBkg" style="display: table-cell; white-space: nowrap; line-height: 1.5; max-width: 200px; text-align: center;"><span class="edgeLabel"></span></div></foreignObject></g></g><g class="edgeLabel"><g class="label" data-id="edge12" transform="translate(0, 0)"><foreignObject width="0" height="0"><div xmlns="http://www.w3.org/1999/xhtml" class="labelBkg" style="display: table-cell; white-space: nowrap; line-height: 1.5; max-width: 200px; text-align: center;"><span class="edgeLabel"></span></div></foreignObject></g></g><g class="edgeLabel"><g class="label" data-id="edge13" transform="translate(0, 0)"><foreignObject width="0" height="0"><div xmlns="http://www.w3.org/1999/xhtml" class="labelBkg" style="display: table-cell; white-space: nowrap; line-height: 1.5; max-width: 200px; text-align: center;"><span class="edgeLabel"></span></div></foreignObject></g></g><g class="edgeLabel" transform="translate(648, 221)"><g class="label" data-id="edge1" transform="translate(-100, -36)"><foreignObject width="200" height="72"><div xmlns="http://www.w3.org/1999/xhtml" class="labelBkg" style="display: table; white-space: break-spaces; line-height: 1.5; max-width: 200px; text-align: center; width: 200px;"><span class="edgeLabel"><p>JwtTokenProvider saves a sessions row and stamps its sessionId into the token</p></span></div></foreignObject></g></g><g class="edgeLabel" transform="translate(116, 805.2)"><g class="label" data-id="edge4" transform="translate(-100, -48)"><foreignObject width="200" height="96"><div xmlns="http://www.w3.org/1999/xhtml" class="labelBkg" style="display: table; white-space: break-spaces; line-height: 1.5; max-width: 200px; text-align: center; width: 200px;"><span class="edgeLabel"><p>exp claim passes - verifier throws TokenExpiredException - 401 TOKEN_EXPIRED</p></span></div></foreignObject></g></g><g class="edgeLabel" transform="translate(382, 805.2)"><g class="label" data-id="edge5" transform="translate(-82.76, -12)"><foreignObject width="165.52" height="24"><div xmlns="http://www.w3.org/1999/xhtml" class="labelBkg" style="display: table-cell; white-space: nowrap; line-height: 1.5; max-width: 200px; text-align: center;"><span class="edgeLabel"><p>POST /api/auth/logout</p></span></div></foreignObject></g></g><g class="edgeLabel" transform="translate(648, 805.2)"><g class="label" data-id="edge6" transform="translate(-94.62, -12)"><foreignObject width="189.23" height="24"><div xmlns="http://www.w3.org/1999/xhtml" class="labelBkg" style="display: table-cell; white-space: nowrap; line-height: 1.5; max-width: 200px; text-align: center;"><span class="edgeLabel"><p>POST /api/auth/logout-all</p></span></div></foreignObject></g></g><g class="edgeLabel" transform="translate(914, 805.2)"><g class="label" data-id="edge7" transform="translate(-110.2, -36)"><foreignObject width="220.39" height="72"><div xmlns="http://www.w3.org/1999/xhtml" class="labelBkg" style="display: table; white-space: break-spaces; line-height: 1.5; max-width: 200px; text-align: center; width: 200px;"><span class="edgeLabel"><p>DELETE /api/auth/sessions/SESSIONID or /revokeAll</p></span></div></foreignObject></g></g><g class="edgeLabel" transform="translate(1180, 805.2)"><g class="label" data-id="edge8" transform="translate(-95.81, -12)"><foreignObject width="191.62" height="24"><div xmlns="http://www.w3.org/1999/xhtml" class="labelBkg" style="display: table-cell; white-space: nowrap; line-height: 1.5; max-width: 200px; text-align: center;"><span class="edgeLabel"><p>DELETE /api/user/account</p></span></div></foreignObject></g></g></g><g class="nodes"><g class="node  statediagram-state" id="my-svg-state-Expired-9" data-look="classic" transform="translate(116, 934.2)"><rect class="basic label-container" style="" rx="5" ry="5" x="-108" y="-44" width="216" height="88"/><g class="label" style="" transform="translate(-100, -36)"><rect/><foreignObject width="200" height="72"><div xmlns="http://www.w3.org/1999/xhtml" style="display: table; white-space: break-spaces; line-height: 1.5; max-width: 200px; text-align: center; width: 200px;"><span class="nodeLabel markdown-node-label"><p>Expired - sessions row survives with is_active still true</p></span></div></foreignObject></g></g><g class="node  statediagram-state" id="my-svg-state-LoggedOut-10" data-look="classic" transform="translate(382, 934.2)"><rect class="basic label-container" style="" rx="5" ry="5" x="-108" y="-44" width="216" height="88"/><g class="label" style="" transform="translate(-100, -36)"><rect/><foreignObject width="200" height="72"><div xmlns="http://www.w3.org/1999/xhtml" style="display: table; white-space: break-spaces; line-height: 1.5; max-width: 200px; text-align: center; width: 200px;"><span class="nodeLabel markdown-node-label"><p>LoggedOut - row is_active false - token_blacklist row written</p></span></div></foreignObject></g></g><g class="node  statediagram-state" id="my-svg-state-LoggedOutAll-11" data-look="classic" transform="translate(648, 934.2)"><rect class="basic label-container" style="" rx="5" ry="5" x="-108" y="-56" width="216" height="112"/><g class="label" style="" transform="translate(-100, -48)"><rect/><foreignObject width="200" height="96"><div xmlns="http://www.w3.org/1999/xhtml" style="display: table; white-space: break-spaces; line-height: 1.5; max-width: 200px; text-align: center; width: 200px;"><span class="nodeLabel markdown-node-label"><p>LoggedOutAll - every row for the user is_active false - only the caller token blacklisted</p></span></div></foreignObject></g></g><g class="node  statediagram-state" id="my-svg-state-Revoked-12" data-look="classic" transform="translate(914, 934.2)"><rect class="basic label-container" style="" rx="5" ry="5" x="-108" y="-32" width="216" height="64"/><g class="label" style="" transform="translate(-100, -24)"><rect/><foreignObject width="200" height="48"><div xmlns="http://www.w3.org/1999/xhtml" style="display: table; white-space: break-spaces; line-height: 1.5; max-width: 200px; text-align: center; width: 200px;"><span class="nodeLabel markdown-node-label"><p>Revoked - row is_active false - nothing blacklisted</p></span></div></foreignObject></g></g><g class="node  statediagram-state" id="my-svg-state-Deleted-13" data-look="classic" transform="translate(1180, 934.2)"><rect class="basic label-container" style="" rx="5" ry="5" x="-108" y="-44" width="216" height="88"/><g class="label" style="" transform="translate(-100, -36)"><rect/><foreignObject width="200" height="72"><div xmlns="http://www.w3.org/1999/xhtml" style="display: table; white-space: break-spaces; line-height: 1.5; max-width: 200px; text-align: center; width: 200px;"><span class="nodeLabel markdown-node-label"><p>AccountDeleted - session rows hard deleted with the user</p></span></div></foreignObject></g></g><g class="node default" id="my-svg-state-root_start-0" data-look="classic" transform="translate(648, 15)"><circle class="state-start" r="7" width="14" height="14"/></g><g class="node  statediagram-state" id="my-svg-state-Minted-1" data-look="classic" transform="translate(648, 140)"><rect class="basic label-container" style="" rx="5" ry="5" x="-32.32" y="-20" width="64.64" height="40"/><g class="label" style="" transform="translate(-24.32, -12)"><rect/><foreignObject width="48.64" height="24"><div xmlns="http://www.w3.org/1999/xhtml" style="display: table-cell; white-space: nowrap; line-height: 1.5; max-width: 200px; text-align: center;"><span class="nodeLabel markdown-node-label"><p>Minted</p></span></div></foreignObject></g></g><g class="root" transform="translate(495.89, 274)"><g class="clusters"><g class="statediagram-state statediagram-cluster" id="my-svg-state-Active-8" data-id="Active" data-look="classic"><g><rect class="outer" x="8" y="8" width="288.23" height="450.2" data-look="classic"/></g><g class="cluster-label" transform="translate(129.7, 9)"><foreignObject width="44.83" height="24"><div xmlns="http://www.w3.org/1999/xhtml" style="display: table-cell; white-space: nowrap; line-height: 1.5;"><span class="nodeLabel"><p>Active</p></span></div></foreignObject></g><rect class="inner" x="8" y="34" width="288.23" height="420.2"/></g></g><g class="edgePaths"><path d="M188,59.5L188,65.75C188,72,188,84.5,188,97C188,109.5,188,122,188,128.25L188,134.5" id="my-svg-edge2" class="edge-thickness-normal edge-pattern-solid transition" style="fill:none;;;fill:none" data-edge="true" data-et="edge" data-id="edge2" data-points="W3sieCI6MTg4LCJ5Ijo1OS41fSx7IngiOjE4OCwieSI6OTd9LHsieCI6MTg4LCJ5IjoxMzQuNX1d" data-look="classic" marker-end="url(#my-svg_stateDiagram-barbEnd)"/><path d="M172.93,174.5L169.91,178.5C166.9,182.5,160.87,190.5,168.91,194.5C176.95,198.5,199.05,198.5,207.09,194.5C215.13,190.5,209.1,182.5,206.09,178.5L203.07,174.5" id="my-svg-edge3" class="edge-thickness-normal edge-pattern-solid transition" style="fill:none;;;fill:none" data-edge="true" data-et="edge" data-id="edge3" data-points="W3sieCI6MTcyLjkyNjEzNjM2MzYzNjM3LCJ5IjoxNzQuNX0seyJ4IjoxNTQuODM3NSwieSI6MTk4LjV9LHsieCI6MjIxLjE2MjUsInkiOjE5OC41fSx7IngiOjIwMy4wNzM4NjM2MzYzNjM2MywieSI6MTc0LjV9XQ==" data-look="classic" marker-end="url(#my-svg_stateDiagram-barbEnd)"/></g><g class="edgeLabels"><g class="edgeLabel"><g class="label" data-id="edge2" transform="translate(0, 0)"><foreignObject width="0" height="0"><div xmlns="http://www.w3.org/1999/xhtml" class="labelBkg" style="display: table-cell; white-space: nowrap; line-height: 1.5; max-width: 200px; text-align: center;"><span class="edgeLabel"></span></div></foreignObject></g></g><g class="edgeLabel" transform="translate(188, 250.5)"><g class="label" data-id="edge3" transform="translate(-100, -48)"><foreignObject width="200" height="96"><div xmlns="http://www.w3.org/1999/xhtml" class="labelBkg" style="display: table; white-space: break-spaces; line-height: 1.5; max-width: 200px; text-align: center; width: 200px;"><span class="edgeLabel"><p>filter verifies the signature then isTokenBlacklisted checks the blacklist and the session row</p></span></div></foreignObject></g></g></g><g class="nodes"><g class="node default" id="my-svg-state-Active_start-2" data-look="classic" transform="translate(188, 52.5)"><circle class="state-start" r="7" width="14" height="14"/></g><g class="node  statediagram-state" id="my-svg-state-Accepted-3" data-look="classic" transform="translate(188, 154.5)"><rect class="basic label-container" style="" rx="5" ry="5" x="-41.45" y="-20" width="82.91" height="40"/><g class="label" style="" transform="translate(-33.45, -12)"><rect/><foreignObject width="66.91" height="24"><div xmlns="http://www.w3.org/1999/xhtml" style="display: table-cell; white-space: nowrap; line-height: 1.5; max-width: 200px; text-align: center;"><span class="nodeLabel markdown-node-label"><p>Accepted</p></span></div></foreignObject></g></g><g class="label edgeLabel" id="Accepted---Accepted---1" transform="translate(128, 249.55)"><rect width="0.1" height="0.1"/><g class="label" style="" transform="translate(0, 0)"><rect/><foreignObject width="0" height="0"><div xmlns="http://www.w3.org/1999/xhtml" style="display: table-cell; white-space: nowrap; line-height: 1.5; max-width: 10px; text-align: center;"><span class="nodeLabel"></span></div></foreignObject></g></g><g class="label edgeLabel" id="Accepted---Accepted---2" transform="translate(188, 420.65)"><rect width="0.1" height="0.1"/><g class="label" style="" transform="translate(0, 0)"><rect/><foreignObject width="0" height="0"><div xmlns="http://www.w3.org/1999/xhtml" style="display: table-cell; white-space: nowrap; line-height: 1.5; max-width: 10px; text-align: center;"><span class="nodeLabel"></span></div></foreignObject></g></g></g></g><g class="node default" id="my-svg-state-root_end-13" data-look="classic" transform="translate(648, 1047.2)"><g class="outer-path"><path d="M7 0 C7 0.41, 6.96 0.82, 6.89 1.22 C6.82 1.61, 6.72 2.01, 6.58 2.39 C6.44 2.77, 6.26 3.15, 6.06 3.5 C5.86 3.85, 5.62 4.19, 5.36 4.5 C5.1 4.81, 4.81 5.1, 4.5 5.36 C4.19 5.62, 3.85 5.86, 3.5 6.06 C3.15 6.26, 2.77 6.44, 2.39 6.58 C2.01 6.72, 1.61 6.82, 1.22 6.89 C0.82 6.96, 0.41 7, 4.29e-16 7 C-0.41 7, -0.82 6.96, -1.22 6.89 C-1.61 6.82, -2.01 6.72, -2.39 6.58 C-2.77 6.44, -3.15 6.26, -3.5 6.06 C-3.85 5.86, -4.19 5.62, -4.5 5.36 C-4.81 5.1, -5.1 4.81, -5.36 4.5 C-5.62 4.19, -5.86 3.85, -6.06 3.5 C-6.26 3.15, -6.44 2.77, -6.58 2.39 C-6.72 2.01, -6.82 1.61, -6.89 1.22 C-6.96 0.82, -7 0.41, -7 1.02e-14 C-7 -0.41, -6.96 -0.82, -6.89 -1.22 C-6.82 -1.61, -6.72 -2.01, -6.58 -2.39 C-6.44 -2.77, -6.26 -3.15, -6.06 -3.5 C-5.86 -3.85, -5.62 -4.19, -5.36 -4.5 C-5.1 -4.81, -4.81 -5.1, -4.5 -5.36 C-4.19 -5.62, -3.85 -5.86, -3.5 -6.06 C-3.15 -6.26, -2.77 -6.44, -2.39 -6.58 C-2.01 -6.72, -1.61 -6.82, -1.22 -6.89 C-0.82 -6.96, -0.41 -7, -1.99e-14 -7 C0.41 -7, 0.82 -6.96, 1.22 -6.89 C1.61 -6.82, 2.01 -6.72, 2.39 -6.58 C2.77 -6.44, 3.15 -6.26, 3.5 -6.06 C3.85 -5.86, 4.19 -5.62, 4.5 -5.36 C4.81 -5.1, 5.1 -4.81, 5.36 -4.5 C5.62 -4.19, 5.86 -3.85, 6.06 -3.5 C6.26 -3.15, 6.44 -2.77, 6.58 -2.39 C6.72 -2.01, 6.82 -1.61, 6.89 -1.22 C6.96 -0.82, 6.98 -0.2, 7 -3.28e-14 C7.02 0.2, 7.02 -0.2, 7 0" stroke="none" stroke-width="0" fill="#ECECFF" style=""/><path d="M7 0 C7 0.41, 6.96 0.82, 6.89 1.22 C6.82 1.61, 6.72 2.01, 6.58 2.39 C6.44 2.77, 6.26 3.15, 6.06 3.5 C5.86 3.85, 5.62 4.19, 5.36 4.5 C5.1 4.81, 4.81 5.1, 4.5 5.36 C4.19 5.62, 3.85 5.86, 3.5 6.06 C3.15 6.26, 2.77 6.44, 2.39 6.58 C2.01 6.72, 1.61 6.82, 1.22 6.89 C0.82 6.96, 0.41 7, 4.29e-16 7 C-0.41 7, -0.82 6.96, -1.22 6.89 C-1.61 6.82, -2.01 6.72, -2.39 6.58 C-2.77 6.44, -3.15 6.26, -3.5 6.06 C-3.85 5.86, -4.19 5.62, -4.5 5.36 C-4.81 5.1, -5.1 4.81, -5.36 4.5 C-5.62 4.19, -5.86 3.85, -6.06 3.5 C-6.26 3.15, -6.44 2.77, -6.58 2.39 C-6.72 2.01, -6.82 1.61, -6.89 1.22 C-6.96 0.82, -7 0.41, -7 1.02e-14 C-7 -0.41, -6.96 -0.82, -6.89 -1.22 C-6.82 -1.61, -6.72 -2.01, -6.58 -2.39 C-6.44 -2.77, -6.26 -3.15, -6.06 -3.5 C-5.86 -3.85, -5.62 -4.19, -5.36 -4.5 C-5.1 -4.81, -4.81 -5.1, -4.5 -5.36 C-4.19 -5.62, -3.85 -5.86, -3.5 -6.06 C-3.15 -6.26, -2.77 -6.44, -2.39 -6.58 C-2.01 -6.72, -1.61 -6.82, -1.22 -6.89 C-0.82 -6.96, -0.41 -7, -1.99e-14 -7 C0.41 -7, 0.82 -6.96, 1.22 -6.89 C1.61 -6.82, 2.01 -6.72, 2.39 -6.58 C2.77 -6.44, 3.15 -6.26, 3.5 -6.06 C3.85 -5.86, 4.19 -5.62, 4.5 -5.36 C4.81 -5.1, 5.1 -4.81, 5.36 -4.5 C5.62 -4.19, 5.86 -3.85, 6.06 -3.5 C6.26 -3.15, 6.44 -2.77, 6.58 -2.39 C6.72 -2.01, 6.82 -1.61, 6.89 -1.22 C6.96 -0.82, 6.98 -0.2, 7 -3.28e-14 C7.02 0.2, 7.02 -0.2, 7 0" stroke="#333333" stroke-width="2" fill="none" stroke-dasharray="0 0" style=""/><g><path d="M2.5 0 C2.5 0.14, 2.49 0.29, 2.46 0.43 C2.44 0.58, 2.4 0.72, 2.35 0.86 C2.3 0.99, 2.24 1.12, 2.17 1.25 C2.09 1.38, 2.01 1.5, 1.92 1.61 C1.82 1.72, 1.72 1.82, 1.61 1.92 C1.5 2.01, 1.38 2.09, 1.25 2.17 C1.12 2.24, 0.99 2.3, 0.86 2.35 C0.72 2.4, 0.58 2.44, 0.43 2.46 C0.29 2.49, 0.14 2.5, 1.53e-16 2.5 C-0.14 2.5, -0.29 2.49, -0.43 2.46 C-0.58 2.44, -0.72 2.4, -0.86 2.35 C-0.99 2.3, -1.12 2.24, -1.25 2.17 C-1.38 2.09, -1.5 2.01, -1.61 1.92 C-1.72 1.82, -1.82 1.72, -1.92 1.61 C-2.01 1.5, -2.09 1.38, -2.17 1.25 C-2.24 1.12, -2.3 0.99, -2.35 0.86 C-2.4 0.72, -2.44 0.58, -2.46 0.43 C-2.49 0.29, -2.5 0.14, -2.5 3.64e-15 C-2.5 -0.14, -2.49 -0.29, -2.46 -0.43 C-2.44 -0.58, -2.4 -0.72, -2.35 -0.86 C-2.3 -0.99, -2.24 -1.12, -2.17 -1.25 C-2.09 -1.38, -2.01 -1.5, -1.92 -1.61 C-1.82 -1.72, -1.72 -1.82, -1.61 -1.92 C-1.5 -2.01, -1.38 -2.09, -1.25 -2.17 C-1.12 -2.24, -0.99 -2.3, -0.86 -2.35 C-0.72 -2.4, -0.58 -2.44, -0.43 -2.46 C-0.29 -2.49, -0.14 -2.5, -7.12e-15 -2.5 C0.14 -2.5, 0.29 -2.49, 0.43 -2.46 C0.58 -2.44, 0.72 -2.4, 0.86 -2.35 C0.99 -2.3, 1.12 -2.24, 1.25 -2.17 C1.38 -2.09, 1.5 -2.01, 1.61 -1.92 C1.72 -1.82, 1.82 -1.72, 1.92 -1.61 C2.01 -1.5, 2.09 -1.38, 2.17 -1.25 C2.24 -1.12, 2.3 -0.99, 2.35 -0.86 C2.4 -0.72, 2.44 -0.58, 2.46 -0.43 C2.49 -0.29, 2.49 -0.07, 2.5 -1.17e-14 C2.51 0.07, 2.51 -0.07, 2.5 0" stroke="none" stroke-width="0" fill="#9370DB" style=""/><path d="M2.5 0 C2.5 0.14, 2.49 0.29, 2.46 0.43 C2.44 0.58, 2.4 0.72, 2.35 0.86 C2.3 0.99, 2.24 1.12, 2.17 1.25 C2.09 1.38, 2.01 1.5, 1.92 1.61 C1.82 1.72, 1.72 1.82, 1.61 1.92 C1.5 2.01, 1.38 2.09, 1.25 2.17 C1.12 2.24, 0.99 2.3, 0.86 2.35 C0.72 2.4, 0.58 2.44, 0.43 2.46 C0.29 2.49, 0.14 2.5, 1.53e-16 2.5 C-0.14 2.5, -0.29 2.49, -0.43 2.46 C-0.58 2.44, -0.72 2.4, -0.86 2.35 C-0.99 2.3, -1.12 2.24, -1.25 2.17 C-1.38 2.09, -1.5 2.01, -1.61 1.92 C-1.72 1.82, -1.82 1.72, -1.92 1.61 C-2.01 1.5, -2.09 1.38, -2.17 1.25 C-2.24 1.12, -2.3 0.99, -2.35 0.86 C-2.4 0.72, -2.44 0.58, -2.46 0.43 C-2.49 0.29, -2.5 0.14, -2.5 3.64e-15 C-2.5 -0.14, -2.49 -0.29, -2.46 -0.43 C-2.44 -0.58, -2.4 -0.72, -2.35 -0.86 C-2.3 -0.99, -2.24 -1.12, -2.17 -1.25 C-2.09 -1.38, -2.01 -1.5, -1.92 -1.61 C-1.82 -1.72, -1.72 -1.82, -1.61 -1.92 C-1.5 -2.01, -1.38 -2.09, -1.25 -2.17 C-1.12 -2.24, -0.99 -2.3, -0.86 -2.35 C-0.72 -2.4, -0.58 -2.44, -0.43 -2.46 C-0.29 -2.49, -0.14 -2.5, -7.12e-15 -2.5 C0.14 -2.5, 0.29 -2.49, 0.43 -2.46 C0.58 -2.44, 0.72 -2.4, 0.86 -2.35 C0.99 -2.3, 1.12 -2.24, 1.25 -2.17 C1.38 -2.09, 1.5 -2.01, 1.61 -1.92 C1.72 -1.82, 1.82 -1.72, 1.92 -1.61 C2.01 -1.5, 2.09 -1.38, 2.17 -1.25 C2.24 -1.12, 2.3 -0.99, 2.35 -0.86 C2.4 -0.72, 2.44 -0.58, 2.46 -0.43 C2.49 -0.29, 2.49 -0.07, 2.5 -1.17e-14 C2.51 0.07, 2.51 -0.07, 2.5 0" stroke="#9370DB" stroke-width="2" fill="none" stroke-dasharray="0 0" style=""/></g></g></g></g></g></g><defs><filter id="my-svg-drop-shadow" height="130%" width="130%"><feDropShadow dx="4" dy="4" stdDeviation="0" flood-opacity="0.06" flood-color="#000000"/></filter></defs><defs><filter id="my-svg-drop-shadow-small" height="150%" width="150%"><feDropShadow dx="2" dy="2" stdDeviation="0" flood-opacity="0.06" flood-color="#000000"/></filter></defs></svg>